<svg xmlns="http://www.w3.org/2000/svg" viewBox="0 0 1338.85 556.13"><defs><style>.a{fill:#a7681b;}</style></defs><title>net-works-company-logo</title><path class="a" d="M1242,254.61c0-4.18-1.4-6.58-4.76-8.93q-57.33-40.14-114.47-80.55c-1.47-1-3-2-4.61-3-3.68,2.55-7,5-10.53,7.26s-6.62,5.36-11.67,6.93V169.8c0-20.83-.06-41.66.06-62.5a9.42,9.42,0,0,0-3.34-7.8Q1039,51.15,985.44,2.67c-1.06-1-2.28-1.74-3.51-2.67-1.57,1.36-2.85,2.41-4.08,3.52L933.72,43.41C913.57,61.63,893.47,79.9,873.19,98c-3.38,3-5.19,6-4.81,10.68.42,5.13.09,10.32.09,15.49q0,32.74,0,65.5c0,1.86-.25,3.73-.49,6.84l-23-18.94c-1.44,1.08-2.66,1.91-3.79,2.85-26,21.6-52,43.29-78.14,64.76a12.1,12.1,0,0,0-5,10.54c.18,33.5.1,67,.08,100.5,0,2.28-.24,4.55-.39,7.25-2.88.13-5.33.34-7.78.34H288.5a27.63,27.63,0,0,1-5-.13c-1.18-.22-2.73-.8-3.28-1.71-2.32-3.87-6-5.14-10-5.74-3.45-.52-7-.63-10.44-.81-2.13-.11-4.27,0-6.92,0-.93-15.06.15-29.67-.66-44.56H239.62c-.56,14.91.25,29.5-.48,44.56-3.27,0-5.91-.09-8.54,0-4.15.19-8.33.26-12.43.86-3.81.55-7.41,1.8-9.65,5.48a5.19,5.19,0,0,1-3.16,1.89,24.25,24.25,0,0,1-5,.16q-49,0-98,0c-2.23,0-4.47.34-7,.54,0,6.35-.53,12.1.39,18.28H201.61a29.59,29.59,0,0,1,4,.07c.92.13,2.18.38,2.62,1,3.42,5.06,8.71,6.06,14.08,6.14,14.65.22,29.31.08,44,.07a15.66,15.66,0,0,0,3-.27c4.11-.81,8.15-1.7,10.82-5.5a4.64,4.64,0,0,1,2.9-1.45,34.59,34.59,0,0,1,5-.09H751q33.49,0,67,0c1.94,0,3.88-.2,5.7-.3,1.05-6.7.79-15.3-.68-19.19h-45.5c-.16-2.28-.39-4.06-.39-5.84,0-31.17,0-62.33-.08-93.5a9.41,9.41,0,0,1,3.75-8.09c20.2-16.62,40.29-33.38,60.43-50.08,1.13-.94,2.35-1.75,3.69-2.73,1.41,1.06,2.63,1.91,3.77,2.85,5,4.13,9.85,8.5,15.07,12.36,3.75,2.78,4.89,6,4.86,10.61-.18,34.5-.1,69-.1,103.49q0,55.5,0,111c0,2.09.21,4.18.32,6.29H931.6c.1-2.1.26-3.89.26-5.68q0-94.5.09-189a9.75,9.75,0,0,0-4-8.49c-12.43-10.07-24.62-20.43-37-30.56a8.53,8.53,0,0,1-3.52-7.22q.1-46.5,0-93a9.08,9.08,0,0,1,3.38-7.34q44-39.64,87.92-79.42c1.06-1,2.3-1.73,3.46-2.59,1,.77,1.72,1.22,2.32,1.77Q1028.88,68,1073.22,108a9.49,9.49,0,0,1,3.41,7.79c-.11,23.17-.16,46.34,0,69.5,0,4.18-1.44,6.59-4.83,8.9-25.17,17.21-50.19,34.64-75.31,51.93-2.68,1.84-4.06,3.74-4,7.26.17,26.33.09,52.66.11,79,0,1.45.21,2.9.31,4.22,4.86,1.29,98.58,1.2,102.75-.08.09-1.19.29-2.49.29-3.79q0-20.75,0-41.5c0-28.5,0-57-.06-85.49,0-3.33.86-5.6,3.79-7.43,4.94-3.09,9.63-6.58,14.44-9.89,4-2.78,4.08-2.79,8.22.12q48,33.81,96.1,67.57c3.12,2.18,4.2,4.52,4.18,8.25-.13,33.33-.07,66.66-.07,100v6.47h-8.78q-113.23,0-226.48,0c-2.44,0-4.88.21-7.44.33v18.12c7,1.13,258,.76,262.05-.47V383.6C1241.91,340.6,1241.85,297.6,1242,254.61ZM887.52,244.54c0-1.58.28-3.16.51-5.56,1.91,1.31,3.16,2,4.26,3,5.53,4.55,10.94,9.25,16.56,13.68a9.29,9.29,0,0,1,3.75,8.1q-.15,55.71-.06,111.43V430c-8.26,1.39-16.12.69-24.5.5-.2-2.06-.52-3.82-.52-5.58Q887.49,334.74,887.52,244.54Zm189,70.66a8.65,8.65,0,0,1-.39,1.86c-3.91,1.42-59,1.56-63.95.09-.1-1.33-.29-2.79-.3-4.25,0-16.5,0-33-.07-49.49a7.06,7.06,0,0,1,3.42-6.6c18.82-12.91,37.56-25.94,56.34-38.9,1.19-.82,2.51-1.43,3.51-2a5.07,5.07,0,0,1,.89.45.69.69,0,0,1,.25.4,14.59,14.59,0,0,1,.34,2.45Q1076.54,267.21,1076.5,315.2Z"/><path class="a" d="M824.15,430.86v17.95C820.29,449.9,6.39,450.2,0,449.13V431C3.76,430,817.8,429.74,824.15,430.86Z"/><path class="a" d="M246.58,164.46c-40.27-.21-70.72,31.63-70.91,70.3-.2,39.57,30.71,70.25,70.22,71,37.89-.36,70.7-29,70.92-70.32C317,195.49,285.76,164.67,246.58,164.46Zm-27.45,15.38c-.43,1.25-.57,1.87-.84,2.42-2.78,5.66-5.71,11.26-8.31,17-1,2.11-2,3.22-4.4,3.14-3.59-.13-7.19,0-11,0C196.94,194.61,209.28,183.3,219.13,179.84Zm22.46,50.9H213.18c-.87-6.23.26-12,1.68-17.78a3.32,3.32,0,0,1,2.42-2c7.94-.15,15.89-.09,24.35-.09A88.32,88.32,0,0,1,241.59,230.74Zm.19,28.26h-26.4a52.11,52.11,0,0,1-2.47-18.53c3.71-1.19,22.78-1.41,28.78-.3C242.45,246.24,242.15,252.43,241.78,259Zm-53.43-46.16a3.19,3.19,0,0,1,2.14-1.79,80.91,80.91,0,0,1,15.61.19c-.65,6-1.18,11.64-1.95,17.2-.12.9-1.26,2.32-2,2.37a110,110,0,0,1-17.5,0A43.65,43.65,0,0,1,188.35,212.84Zm-1.91,39.28c-1-3.8-1.54-7.71-2.44-12.31h19.8c.79,6.31,1.55,12.35,2.35,18.76a21.63,21.63,0,0,1-3.33.75c-2.33.11-4.66,0-7,0C188.46,259.36,188.35,259.39,186.44,252.12Zm7.39,16.32a42.58,42.58,0,0,1,13.77-.33c.62.06,1.39.93,1.71,1.6,3.15,6.73,6.22,13.49,9.8,21.32A58.59,58.59,0,0,1,193.83,268.44Zm47.5,27.26c-8.82,0-21-14.38-22.91-27.61h22.46C242.39,272,242.64,290.38,241.33,295.7ZM241.12,202H218.55c1.14-11.51,12.23-25.25,22.24-27.89C242.46,177.49,242.73,196.68,241.12,202Zm63,10.84c2.24,5.52,3.94,11.2,3.66,17.39-3.64,1.55-7.31.76-10.87.81-8.16.13-8.13,0-9.09-7.82-.46-3.75-1.06-7.48-1.76-12.32,5.63,0,10.55-.1,15.47.09A3.56,3.56,0,0,1,304.1,212.85Zm-5.67-11.18c-4.87,1.23-9,.64-13.05.57a3.16,3.16,0,0,1-2.24-1.59c-3.18-6.7-6.23-13.47-9.82-21.3C284.18,184.77,292.2,191.71,298.43,201.67ZM279.48,230c-.71.38-1.14.8-1.57.81q-12.21.15-24.41.22c-1.65,0-3.1-.54-3.13-2.43-.08-5.61,0-11.22,0-17.27,9.07-1,17.61-.42,26.75-.37C278.73,217.63,279.87,223.75,279.48,230Zm-29-55.53c9.16.19,21.42,14.62,23.5,27.64H250.61A250,250,0,0,1,250.48,174.48Zm.05,65.38h28.84c.61,6.52-.55,12.72-2.27,19.17H250.59A119.09,119.09,0,0,1,250.53,239.86Zm.07,56.29c-.69-9.44-.34-18.45-.29-27.89,8.17-.85,15.71-.47,23.22-.29C274,278.07,261.21,294.12,250.6,296.15Zm22.79-5.94a19.32,19.32,0,0,1,.82-2.31c2.69-5.5,5.56-10.92,8.06-16.5,1.08-2.41,2.24-3.85,5.09-3.65,3.39.23,6.81.16,10.35.22C295.48,275.82,281.87,288.17,273.39,290.21Zm30.86-33a3.61,3.61,0,0,1-2.48,2,91.09,91.09,0,0,1-15.55-.18c.81-6.55,1.55-12.57,2.38-19.31,6.27-.39,12.45-.14,19.16-.11C308,246.28,306.4,251.81,304.25,257.18Z"/><path class="a" d="M1338.85,430.37v18.55c-3.73,1-352.1,1.32-359.26.29a97.93,97.93,0,0,1,0-18.84Z"/><path class="a" d="M827.74,542.94l-15-39.88c-2,2.28-1.5,4.16-1.51,5.85-.05,13.67,0,27.33,0,41,0,1.79-.15,3.58-.25,5.74H799.78a32.64,32.64,0,0,1-.54-4.26q0-31.75,0-63.49c0-1.31.24-2.61.41-4.26h18.27c5,13.6,10.05,27.58,15.14,41.56l1.14,0c3.32-6.57,5.16-13.75,7.76-20.61s5.09-14.05,7.65-21.14h17.66c1.27,3.9,1.48,66.55.22,72.16H856.71c-.12-1.95-.35-3.87-.36-5.79,0-13.5,0-27,0-40.49v-5.65c-2.62.42-2.64,2.21-3.11,3.42-4,10.42-7.86,20.89-11.79,31.33-1.67,4.42-1.7,4.42-6.42,4.47C832.71,543,830.4,542.94,827.74,542.94Z"/><path class="a" d="M316.11,556c-3.93,0-7.4-.1-10.86,0-2.86.12-3.6-1.7-4.24-3.92q-3.76-13.21-7.66-26.38a15.75,15.75,0,0,0-3-5.93c-.5,1.35-1.07,2.67-1.48,4-2.77,9.25-5.47,18.51-8.24,27.76-1.3,4.33-1.35,4.34-5.85,4.4-2.34,0-4.67,0-7-.08a16.65,16.65,0,0,1-2.52-.54c-4.6-23.64-9.22-47.42-13.95-71.72h12.5c1.55,7.81,3.17,15.9,4.77,24s3.19,16.24,4.83,24.63c2.6-1.12,2.34-3.27,2.77-4.86,2.26-8.36,4.33-16.76,6.51-25.14.49-1.9,1.13-3.76,1.74-5.75h12.75q4.71,17.73,9.4,35.42h1.15c2-5,2.3-10.41,3.48-15.59,1.26-5.51,2.17-11.1,3.25-16.66,1-5.36,2.14-10.71,3.24-16.23h12.5C325.5,507.78,320.85,531.66,316.11,556Z"/><path class="a" d="M1037.3,555.68h-11c-1.23-3.69-1.52-66-.26-72.36,3.8,0,7.74-.05,11.68,0,2.32,0,2.77,2.14,3.59,3.69q8.84,16.8,17.61,33.64l5.21,9.9c2.13-1.57,1.47-3.37,1.48-4.86,0-12.16,0-24.33,0-36.49,0-1.78.16-3.57.26-5.64h11.16c1.1,3.79,1.26,66.72.09,72.35-4,0-8.1.3-12.15-.18-1.31-.16-2.7-2.21-3.49-3.69-6.73-12.64-13.32-25.36-20-38-.83-1.57-1.76-3.09-2.77-4.86-2.08,1.73-1.48,3.66-1.49,5.34-.06,11.49,0,23,0,34.48Z"/><path class="a" d="M75.36,556c-4.15,0-7.94,0-11.74,0-2.27,0-3.14-1.53-4-3.19L50.84,536C46.91,528.49,43,521,39,513.45c-.74-1.41-1.63-2.74-2.89-4.84-1.74,4.51-.87,8.29-1,11.95-.16,3.83,0,7.66,0,11.49v23c-3.79,1.6-7.36,1-11.47.54a39.2,39.2,0,0,1-.56-4.77q-.06-31.22,0-62.43c0-1.46.23-2.93.41-5.1,4.18,0,8.11,0,12,0,2.38,0,2.76,2.15,3.57,3.68,6.82,13,13.58,25.94,20.38,38.91a17.9,17.9,0,0,0,3.07,4.32c1.58-5.16.85-10.25,1-15.28s0-10.32,0-15.48V483.67H75.26a29.21,29.21,0,0,1,.54,4q.06,31.71,0,63.43C75.81,552.59,75.55,554,75.36,556Z"/><path class="a" d="M557.6,536.44H569c.32.5.61.76.65,1.06.86,6.66.85,6.67,7.52,6.68,5.33,0,10.66.07,16,0,4.17-.07,5-.85,5.11-5,.12-3,.14-6,0-9-.19-3.55-1-4.36-4.6-4.41-8.16-.09-16.31,0-24.47,0a30.5,30.5,0,0,1-4.49-.15,7.81,7.81,0,0,1-7-7.85q-.23-13.23,0-26.46c.08-4.62,3.17-7.59,8-7.92,3.32-.23,6.66-.09,10-.09q11.73,0,23.47,0c8.62,0,11.07,2.44,11.1,10.86,0,2.65,0,5.3,0,7.75-3.92,1.68-5.77,1.79-11,.78-.2-.24-.54-.47-.59-.75-1.27-6.59-1.26-6.62-7.86-6.65-5.33,0-10.66-.09-16,.06-4.34.12-4.83.72-4.93,5,0,2.67,0,5.33,0,8,.08,4.79.51,5.28,5.58,5.36,6.32.11,12.65,0,19,0,2.49,0,5-.08,7.48.12,5.66.45,8.17,3,8.24,8.56q.15,12.48,0,25c-.08,5.58-2.66,8.45-8.2,8.54q-18,.29-36,0c-5.47-.08-8.23-3.08-8.39-8.44C557.52,544,557.6,540.55,557.6,536.44Z"/><path class="a" d="M465.57,522.5c1.41-3,3.31-5.29,3.43-7.64.39-8,.25-16,.11-24-.07-3.73-2.21-6.2-5.84-7.16a17.3,17.3,0,0,0-4.44-.43q-18.74,0-37.47,0c-1.44,0-2.87.23-4.45.37v71.95h12V528.9c1-.54,1.25-.83,1.54-.84,7.65-.09,15.31-.26,23-.18,2.81,0,3.63,1,3.72,4.21.15,5.66,0,11.32.09,17,0,2.1.22,4.21.34,6.4,4,.75,7.56,1,11.36-.2.08-1.79.22-3.43.22-5.06,0-6-.09-12,.05-18C469.34,528.24,469,524.56,465.57,522.5Zm-8.39-10.62c0,2-.79,3.82-3.05,3.83-8,0-15.95-.11-23.92-.22-.27,0-.53-.36-1-.73V496a21.61,21.61,0,0,1,3.58-.66c6.49-.06,13-.13,19.47,0,4.23.09,4.88.83,5,5.07C457.32,504.22,457.24,508.05,457.18,511.88Z"/><path class="a" d="M781.38,493c0-6.9-2.81-9.65-9.74-9.7q-16.49-.1-33,0c-7.32,0-10.06,2.94-10.09,10.44,0,8.65,0,17.31,0,26,0,9-.05,18,0,27,0,6.34,2.74,9.24,9.06,9.32q17.24.22,34.46,0c6.72-.08,9.23-2.72,9.25-9.57Q781.49,519.72,781.38,493Zm-12,45.94c0,4.41-.84,5.17-5.32,5.23-6.15.07-12.31.09-18.46,0-4-.06-4.65-.76-4.7-4.7-.09-6.65,0-13.3,0-20,0-6.31,0-12.63,0-19,0-4.45.53-5.09,4.72-5.2q9.48-.22,18.95,0c4.14.09,4.81.85,4.83,5.19Q769.48,519.72,769.39,538.93Z"/><path class="a" d="M399,493.53c0-7.4-2.81-10.2-10.27-10.24q-16.23-.09-32.46,0c-7.27,0-10,2.73-10,9.9-.06,8.83,0,17.65,0,26.47s0,17.65,0,26.47c0,7.36,2.49,9.83,9.94,9.89,11,.09,22-.11,33,.07,6.81.11,10.08-3.92,10-10.12C398.83,528.49,399,511,399,493.53Zm-12.32,45.66c0,4.26-.66,4.9-4.95,5q-9.23.14-18.45,0c-4.14-.06-5-.89-5.07-5q-.12-19.45,0-38.91c0-4,.71-4.83,4.57-4.93,6.48-.15,13-.16,19.45,0,3.9.1,4.41.78,4.45,4.93.07,6.48,0,13,0,19.45S386.75,532.7,386.68,539.19Z"/><path class="a" d="M1248.59,519.9c0-8.83.06-17.65,0-26.47-.06-7.48-2.76-10.11-10.36-10.15q-16-.07-32,0c-7.76,0-10.57,2.84-10.58,10.5q0,26,0,51.94c0,7.56,2.6,10.24,10.18,10.3q16.23.13,32.47,0c7.76-.06,10.2-2.5,10.27-10.16C1248.65,537.21,1248.59,528.55,1248.59,519.9Zm-12.12,18.94c0,4.51-.77,5.26-5.2,5.32q-9,.12-18,0c-4.64,0-5.31-.67-5.33-5.13q-.07-19.46,0-38.91c0-4,.62-4.69,4.64-4.78q9.72-.22,19.45,0c3.67.1,4.32.86,4.37,4.57.1,6.65,0,13.3,0,20C1236.49,526.2,1236.54,532.52,1236.47,538.84Z"/><path class="a" d="M145.85,483.63v11.09c-2.11.19-4,.49-5.95.5-9.15,0-18.31,0-27.46,0-2,0-3.94.22-6.26.36v17.51c8.63,1.52,17.46-.21,26.39,1.08v11.6h-26.4v18.06c6.58.64,13.18.22,19.75.3s12.93,0,19.79,0v11c-3.94,1.06-45.61,1.3-51.33.35-1.08-3.48-1.39-65.45-.29-71.9Z"/><path class="a" d="M540,555.67h-11.6c-.22-2.45-.53-4.56-.57-6.68-.09-5.5,0-11-.12-16.5-.08-3.94-.72-4.59-4.75-4.66-6.34-.1-12.67-.08-19,0-4.26,0-4.59.35-4.65,4.54-.09,5.83,0,11.67,0,17.5,0,1.79-.16,3.59-.27,5.78H487.62v-72h11.55v6.52c0,7.16-.05,14.33,0,21.49.05,3.64.49,4.06,4,4.22,3,.13,6-.09,9,.07s4.5-1.11,5.4-3.94c2.48-7.78,5.18-15.48,7.81-23.21.58-1.72,1.23-3.41,1.9-5.26h12.8c-3.19,10.76-7.49,20.79-10.76,31.64,1.9.44,3.31.71,4.69,1.09,3.54,1,5.82,3.48,5.87,7.19C540.06,533.94,540,544.43,540,555.67Z"/><path class="a" d="M939,491.85c-.06-5-3-8-7.91-8.52a19,19,0,0,0-2-.05q-19.45,0-38.93,0a24.75,24.75,0,0,0-3.22.44c-1.23,6.08-.92,68.2.37,72h10.9v-6.65c0-5.16.05-10.31,0-15.47,0-2.44.93-3.78,3.51-3.7,1.33,0,2.66,0,4,0,8.15,0,16.3.08,24.45-.05,6-.1,8.79-3,8.84-9C939.05,511.15,939.07,501.5,939,491.85Zm-12.29,21.66c-.08,3.62-.76,4.4-4.43,4.48-6.8.14-13.61,0-20.41,0-1.78,0-3.51-.33-3.53-2.56-.08-6.43,0-12.86,0-19.34a18.31,18.31,0,0,1,3.36-.78c6.8-.06,13.61-.15,20.41,0,4.05.08,4.57.73,4.64,4.73C926.76,504.55,926.77,509,926.67,513.51Z"/><path class="a" d="M700.83,536.44h10.91a35.41,35.41,0,0,1,.25,14c-.48,3.07-2.9,4.76-5.9,5.35a20.34,20.34,0,0,1-4,.28q-16,0-32,0c-.66,0-1.33,0-2,0-5.71-.38-8.46-3.14-8.53-8.87-.09-7.49,0-15,0-22.47,0-10.66,0-21.31,0-32,0-6.16,3-9.3,9.11-9.37q17.49-.19,35,0c5.67.07,8.48,3.06,8.7,8.71.1,2.66,0,5.33,0,8,0,1.68-.6,3-2.51,3.08-2.93.08-5.87,0-8.42,0-.51-1-.79-1.28-.79-1.57-.1-5.13-.18-6.31-7-6.31-5.5,0-11-.08-16.49.05-4.67.11-5.23.69-5.25,5.2q-.07,19.23,0,38.46c0,4.56.62,5.14,5.24,5.2,5.83.08,11.66.06,17.48,0,5,0,5.32-.38,5.83-5.29C700.52,538.23,700.65,537.58,700.83,536.44Z"/><path class="a" d="M986.66,483.45H974.07L948.68,556c3.79,0,6.73-.11,9.66,0,2.65.13,3.89-1.15,4.6-3.53,1-3.51,2.35-6.93,3.41-10.43.74-2.44,2.18-3.42,4.75-3.37,6.15.12,12.31.16,18.46,0,2.89-.08,4.18,1.24,5,3.8,1.1,3.66,2.31,7.3,3.72,10.84.42,1,1.65,2.37,2.6,2.46,3.42.29,6.88.11,11.19.11Zm-14.74,42.47c2.62-7.75,5.12-15.16,7.75-22.91,2.75,3.08,7.8,17.14,8.49,22.78C984.52,527.21,977.63,527.37,971.92,525.92Z"/><path class="a" d="M1308.36,483.49h13.38c-.89,2.05-1.52,3.69-2.29,5.28-6.3,13-12.56,26.1-19,39.07a23.19,23.19,0,0,0-2.58,11.49c.21,5.28.05,10.58.05,16.29h-12.31c0-4.26-.27-8.23.05-12.15.59-7.06-1.25-13.32-4.49-19.56-6.06-11.67-11.59-23.61-17.32-35.45-.71-1.45-1.25-3-2-4.9h13.4l15.87,33.89h1.18C1298,506.3,1302.77,494.66,1308.36,483.49Z"/><path class="a" d="M1126.92,555.67h-12.31a94.64,94.64,0,0,1,.05-9.71c.92-8.78-1.45-16.59-5.57-24.31-5.8-10.86-10.88-22.1-16.25-33.19-.7-1.45-1.24-3-2-4.9h13.39c5.22,11.13,10.55,22.51,15.88,33.89l1.27,0q8-17,16-34h13.41c-.89,2.05-1.52,3.7-2.29,5.28-6.31,13-12.56,26.1-19,39.08a23.16,23.16,0,0,0-2.58,11.48C1127.08,544.61,1126.92,549.91,1126.92,555.67Z"/><path class="a" d="M176.72,495.33H157.61c-1.43-4.2-1-7.75-.46-12.05,17.15,0,34.19,0,51.31,0,1.53,3.35,1,6.51.79,9.6-.11,1.95-1.67,2.28-3.25,2.31-3.49.05-7,0-10.48.09-2,0-3.89.29-6.27.48v59.06c-4,1.51-6,1.6-11.64.57-.14-1.77-.42-3.69-.43-5.61,0-15.81,0-31.63,0-47.44C177.14,500.22,176.9,498.11,176.72,495.33Z"/></svg>